<svg id="Layer_1" data-name="Layer 1" xmlns="http://www.w3.org/2000/svg" viewBox="0 0 1920 1080"><defs><style>.cls-1{fill:#2bd3e0;}.cls-2{fill:#fff;}</style></defs><path class="cls-1" d="M1920,0V1.37c-93.92,128.09-190.3,192.73-261.78,228.3-64.74,32.22-93.26,59.45-379.66,97L1268.49,328C1028.1,359.09,921.16,409.27,884,429.88c-41.47,23-66.61,42.89-293.45,276.58L586,711.1c-202.81,209-224.57,236.16-285.12,273-67.46,41.06-163.15,82-297.38,95.89H0V0Z"/><path class="cls-2" d="M2204,1012.37V2091H287.5c134.23-13.86,229.92-54.83,297.38-95.89,60.55-36.85,82.31-64,285.12-273l4.51-4.64c226.84-233.69,252-253.6,293.45-276.58,37.2-20.61,144.14-70.79,384.53-101.87l10.07-1.31c286.4-37.58,314.92-64.81,379.66-97C2013.7,1205.1,2110.08,1140.46,2204,1012.37Z"/></svg>